<?xml version="1.0" encoding="utf-8"?>
<!-- Generator: Adobe Illustrator 28.0.0, SVG Export Plug-In . SVG Version: 6.00 Build 0)  -->
<svg version="1.1" id="Layer_2" xmlns="http://www.w3.org/2000/svg" xmlns:xlink="http://www.w3.org/1999/xlink" x="0px" y="0px"
	 viewBox="0 0 211 150" style="enable-background:new 0 0 211 150;" xml:space="preserve">
<style type="text/css">
	.st0{fill:#26C1DB;}
	.st1{fill:#2B2C6B;}
	.st2{fill:#F36D21;}
</style>
<g id="NH-Primary-Logomark" transform="translate(15.709 15.334)">
	<g id="Group_25994" transform="translate(-15.709 -15.334)">
		<path id="Path_423266" class="st0" d="M38.4,61.8C50,70.3,63,76.7,76.8,80.7l8-13.9c-12.5-0.8-24.7-4.2-35.8-10L38.4,61.8z"/>
		<path id="Path_423267" class="st0" d="M85.1,91.2c12.6,1.9,25.4,1.4,37.8-1.5l-3.8,21.9c-13.4-0.5-26.7-3-39.4-7.6L85.1,91.2
			L85.1,91.2z"/>
		<path id="Path_423268" class="st1" d="M133.1,110.8c13.8-3.6,26.6-10.2,37.5-19.4l0.8-33c-10,11.4-22.1,20.8-35.7,27.6
			L133.1,110.8L133.1,110.8z"/>
		<path id="Path_423269" class="st0" d="M130,140.5c13.7,0.2,27.3-2.7,39.7-8.5l0.7-28.5c-11.5,8.1-24.5,13.7-38.2,16.6L130,140.5
			L130,140.5z"/>
		<path id="Path_423270" class="st2" d="M136.7,73.8c13.8-7.7,25.7-18.3,35.1-31.1l0.8-33.2c-6.6,17-18.3,31.5-33.4,41.7L136.7,73.8
			L136.7,73.8z"/>
		<path id="Path_423271" class="st1" d="M88.4,83.4c12.3,1.2,24.7-0.4,36.4-4.7l3.6-21.2c-10.3,5.1-21.6,8-33,8.8L88.4,83.4z"/>
	</g>
</g>
</svg>
